<svg width="64" height="64" viewBox="0 0 64 64" fill="none" xmlns="http://www.w3.org/2000/svg">
<path opacity="0.2" d="M32 38C46.3594 38 58 32.6274 58 26C58 19.3726 46.3594 14 32 14C17.6406 14 6 19.3726 6 26C6 32.6274 17.6406 38 32 38Z" fill="#355DFB"/>
<path fill-rule="evenodd" clip-rule="evenodd" d="M13.8248 17.9687C9.15663 20.1232 6.5 22.9989 6.5 26C6.5 29.0011 9.15663 31.8768 13.8248 34.0313C18.4504 36.1662 24.8758 37.5 32 37.5C39.1242 37.5 45.5496 36.1662 50.1752 34.0313C54.8434 31.8768 57.5 29.0011 57.5 26C57.5 22.9989 54.8434 20.1232 50.1752 17.9687C45.5496 15.8338 39.1242 14.5 32 14.5C24.8758 14.5 18.4504 15.8338 13.8248 17.9687ZM13.4057 17.0607C18.1902 14.8525 24.7648 13.5 32 13.5C39.2352 13.5 45.8098 14.8525 50.5943 17.0607C55.3363 19.2494 58.5 22.3737 58.5 26C58.5 29.6263 55.3363 32.7506 50.5943 34.9393C45.8098 37.1475 39.2352 38.5 32 38.5C24.7648 38.5 18.1902 37.1475 13.4057 34.9393C8.66367 32.7506 5.5 29.6263 5.5 26C5.5 22.3737 8.66367 19.2494 13.4057 17.0607Z" fill="#355DFB"/>
<path fill-rule="evenodd" clip-rule="evenodd" d="M32 37.5C32.2761 37.5 32.5 37.7239 32.5 38V50C32.5 50.2761 32.2761 50.5 32 50.5C31.7239 50.5 31.5 50.2761 31.5 50V38C31.5 37.7239 31.7239 37.5 32 37.5Z" fill="#355DFB"/>
<path fill-rule="evenodd" clip-rule="evenodd" d="M6 25.5C6.27614 25.5 6.5 25.7239 6.5 26V38C6.5 40.7091 8.7775 43.5797 13.2236 45.8028C17.6376 48.0098 24.0567 49.5 32 49.5C39.9433 49.5 46.3624 48.0098 50.7764 45.8028C55.2225 43.5797 57.5 40.7091 57.5 38V26C57.5 25.7239 57.7239 25.5 58 25.5C58.2761 25.5 58.5 25.7239 58.5 26V38C58.5 41.2909 55.7775 44.4203 51.2236 46.6972C46.6376 48.9902 40.0567 50.5 32 50.5C23.9433 50.5 17.3624 48.9902 12.7764 46.6972C8.2225 44.4203 5.5 41.2909 5.5 38V26C5.5 25.7239 5.72386 25.5 6 25.5Z" fill="#355DFB"/>
<path fill-rule="evenodd" clip-rule="evenodd" d="M48 35.0269C48.2761 35.0269 48.5 35.2507 48.5 35.5269V47.527C48.5 47.8032 48.2761 48.027 48 48.027C47.7239 48.027 47.5 47.8032 47.5 47.527V35.5269C47.5 35.2507 47.7239 35.0269 48 35.0269Z" fill="#355DFB"/>
<path fill-rule="evenodd" clip-rule="evenodd" d="M16 35.0269C16.2761 35.0269 16.5 35.2507 16.5 35.5269V47.527C16.5 47.8031 16.2761 48.027 16 48.027C15.7239 48.027 15.5 47.8031 15.5 47.527V35.5269C15.5 35.2507 15.7239 35.0269 16 35.0269Z" fill="#355DFB"/>
</svg>
