<svg width="64" height="64" viewBox="0 0 64 64" fill="none" xmlns="http://www.w3.org/2000/svg">
<path opacity="0.2" d="M53 10H39V52H53V10Z" fill="#355DFB"/>
<path fill-rule="evenodd" clip-rule="evenodd" d="M6.5 52C6.5 51.7239 6.72386 51.5 7 51.5H57C57.2761 51.5 57.5 51.7239 57.5 52C57.5 52.2761 57.2761 52.5 57 52.5H7C6.72386 52.5 6.5 52.2761 6.5 52Z" fill="#355DFB"/>
<path fill-rule="evenodd" clip-rule="evenodd" d="M24.5 22C24.5 21.7239 24.7239 21.5 25 21.5H39C39.2761 21.5 39.5 21.7239 39.5 22C39.5 22.2761 39.2761 22.5 39 22.5H25.5V52C25.5 52.2761 25.2761 52.5 25 52.5C24.7239 52.5 24.5 52.2761 24.5 52V22Z" fill="#355DFB"/>
<path fill-rule="evenodd" clip-rule="evenodd" d="M38.5 10C38.5 9.72386 38.7239 9.5 39 9.5H53C53.2761 9.5 53.5 9.72386 53.5 10V52C53.5 52.2761 53.2761 52.5 53 52.5H39C38.7239 52.5 38.5 52.2761 38.5 52V10ZM39.5 10.5V51.5H52.5V10.5H39.5Z" fill="#355DFB"/>
<path fill-rule="evenodd" clip-rule="evenodd" d="M10.5 34C10.5 33.7239 10.7239 33.5 11 33.5H25C25.2761 33.5 25.5 33.7239 25.5 34C25.5 34.2761 25.2761 34.5 25 34.5H11.5V52C11.5 52.2761 11.2761 52.5 11 52.5C10.7239 52.5 10.5 52.2761 10.5 52V34Z" fill="#355DFB"/>
</svg>
